<svg width="54" height="54" viewBox="0 0 54 54" fill="none" xmlns="http://www.w3.org/2000/svg">
    <g clip-path="url(#clip0_524_1167)">
    <mask id="mask0_524_1167" style="mask-type:luminance" maskUnits="userSpaceOnUse" x="0" y="0" width="55" height="54">
    <path d="M13.6946 53.809C10.4828 53.663 8.7381 53.1285 7.57762 52.676C6.03995 52.0773 4.94367 51.3648 3.78961 50.2124C2.63716 49.0601 1.92129 47.964 1.3258 46.4265C0.873168 45.2661 0.338674 43.5216 0.192611 40.3102C0.0321018 36.8388 0 35.7972 0 27.0024C0 18.2076 0.035312 17.1676 0.191006 13.693C0.337069 10.4816 0.874773 8.74027 1.3242 7.57672C1.9229 6.03923 2.63716 4.94309 3.78801 3.78756C4.94046 2.63524 6.03674 1.91946 7.57602 1.32404C8.7365 0.87146 10.4812 0.337029 13.693 0.190983C17.1664 0.032098 18.2097 0 27.0024 0C35.7983 0 36.8384 0.0353078 40.3134 0.190983C43.5252 0.337029 45.2667 0.874669 46.4304 1.32404C47.9681 1.91946 49.0644 2.63524 50.2184 3.78756C51.3709 4.93988 52.0835 6.03763 52.6822 7.57512C53.1349 8.73546 53.6694 10.48 53.8154 13.6914C53.9743 17.166 54.0064 18.206 54.0064 27.0008C54.0064 35.7924 53.9743 36.8356 53.8154 40.3102C53.6694 43.5216 53.1316 45.2661 52.6822 46.4265C52.0835 47.964 51.3709 49.0601 50.2184 50.2124C49.066 51.3648 47.9681 52.0773 46.4304 52.676C45.2699 53.1285 43.5252 53.663 40.3134 53.809C36.8416 53.9679 35.7983 54 27.0024 54C18.2097 54 17.1664 53.9695 13.6946 53.809Z" fill="white"/>
    </mask>
    <g mask="url(#mask0_524_1167)">
    <mask id="mask1_524_1167" style="mask-type:luminance" maskUnits="userSpaceOnUse" x="-89" y="-89" width="232" height="232">
    <path d="M-88.6105 -88.5984H142.728V142.6H-88.6105V-88.5984Z" fill="white"/>
    </mask>
    <g mask="url(#mask1_524_1167)">
    <mask id="mask2_524_1167" style="mask-type:luminance" maskUnits="userSpaceOnUse" x="-89" y="-89" width="232" height="232">
    <path d="M-88.6105 -88.5984H142.728V142.6H-88.6105V-88.5984Z" fill="white"/>
    </mask>
    <g mask="url(#mask2_524_1167)">
    <path d="M-88.6105 -88.5984H142.615V142.6H-88.6105V-88.5984Z" fill="#033008"/>
    </g>
    </g>
    </g>
    <path d="M20.3799 27.0007C20.3799 23.3432 23.3445 20.3773 27.0025 20.3773C30.6605 20.3773 33.6267 23.3432 33.6267 27.0007C33.6267 30.6583 30.6605 33.6241 27.0025 33.6241C23.3445 33.6241 20.3799 30.6583 20.3799 27.0007ZM16.7989 27.0007C16.7989 32.6355 21.367 37.2031 27.0025 37.2031C32.6379 37.2031 37.206 32.6355 37.206 27.0007C37.206 21.3659 32.6379 16.7984 27.0025 16.7984C21.367 16.7984 16.7989 21.3659 16.7989 27.0007ZM35.2253 16.3939C35.2253 17.71 36.2927 18.7788 37.6105 18.7788C38.9267 18.7788 39.9957 17.71 39.9957 16.3939C39.9957 15.0779 38.9283 14.0107 37.6105 14.0107C36.2927 14.0107 35.2253 15.0779 35.2253 16.3939ZM18.9738 43.1733C17.0365 43.085 15.9835 42.7624 15.2837 42.4896C14.356 42.1285 13.6947 41.6984 12.9981 41.0034C12.3031 40.3085 11.8713 39.6473 11.5118 38.7197C11.2389 38.0199 10.9163 36.9671 10.828 35.03C10.7317 32.9356 10.7124 32.3065 10.7124 27.0007C10.7124 21.6949 10.7333 21.0674 10.828 18.9714C10.9163 17.0343 11.2405 15.9831 11.5118 15.2818C11.8729 14.3541 12.3031 13.6929 12.9981 12.9964C13.6931 12.3015 14.3544 11.8697 15.2837 11.5102C15.9835 11.2374 17.0365 10.9148 18.9738 10.8266C21.0685 10.7303 21.6977 10.711 27.0025 10.711C32.3089 10.711 32.9365 10.7319 35.0327 10.8266C36.9701 10.9148 38.0214 11.239 38.7228 11.5102C39.6506 11.8697 40.3119 12.3015 41.0085 12.9964C41.7035 13.6913 42.1336 14.3541 42.4948 15.2818C42.7677 15.9815 43.0903 17.0343 43.1786 18.9714C43.2749 21.0674 43.2941 21.6949 43.2941 27.0007C43.2941 32.3049 43.2749 32.934 43.1786 35.03C43.0903 36.9671 42.766 38.0199 42.4948 38.7197C42.1336 39.6473 41.7035 40.3085 41.0085 41.0034C40.3135 41.6984 39.6506 42.1285 38.7228 42.4896C38.023 42.7624 36.9701 43.085 35.0327 43.1733C32.9381 43.2696 32.3089 43.2888 27.0025 43.2888C21.6977 43.2888 21.0685 43.2696 18.9738 43.1733ZM18.8101 7.25245C16.6946 7.34874 15.25 7.68416 13.9868 8.17526C12.6803 8.68241 11.5728 9.36289 10.4668 10.4671C9.36254 11.5712 8.68199 12.6786 8.17478 13.9866C7.68362 15.2497 7.34816 16.6941 7.25185 18.8093C7.15394 20.9278 7.13147 21.605 7.13147 27.0007C7.13147 32.3964 7.15394 33.0737 7.25185 35.1921C7.34816 37.3074 7.68362 38.7518 8.17478 40.0148C8.68199 41.3212 9.36094 42.4302 10.4668 43.5344C11.5711 44.6385 12.6787 45.3174 13.9868 45.8262C15.2516 46.3173 16.6946 46.6527 18.8101 46.749C20.9304 46.8453 21.6062 46.8694 27.0025 46.8694C32.4004 46.8694 33.0761 46.8469 35.1948 46.749C37.3103 46.6527 38.7549 46.3173 40.0181 45.8262C41.3247 45.3174 42.4322 44.6385 43.5381 43.5344C44.6424 42.4302 45.3213 41.3212 45.8302 40.0148C46.3213 38.7518 46.6584 37.3074 46.7531 35.1921C46.8494 33.072 46.8719 32.3964 46.8719 27.0007C46.8719 21.605 46.8494 20.9278 46.7531 18.8093C46.6568 16.6941 46.3213 15.2497 45.8302 13.9866C45.3213 12.6802 44.6424 11.5728 43.5381 10.4671C42.4338 9.36289 41.3247 8.68241 40.0197 8.17526C38.7549 7.68416 37.3104 7.34714 35.1964 7.25245C33.0777 7.15615 32.4004 7.13208 27.0041 7.13208C21.6062 7.13208 20.9304 7.15455 18.8101 7.25245Z" fill="white"/>
    </g>
    <defs>
    <clipPath id="clip0_524_1167">
    <rect width="54" height="54" fill="white"/>
    </clipPath>
    </defs>
    </svg>
    