<svg width="58" height="46" viewBox="0 0 58 46" fill="none" xmlns="http://www.w3.org/2000/svg">
    <path d="M56.1576 2.02359C56.1576 2.02359 51.2368 4.81983 48.5005 5.61239C47.0318 3.98807 45.08 2.8368 42.9089 2.31426C40.7379 1.79175 38.4525 1.92318 36.3617 2.69081C34.2709 3.45843 32.4754 4.8252 31.2185 6.60625C29.9615 8.38733 29.3035 10.4967 29.3335 12.6492V14.9949C25.048 15.1017 20.8017 14.1875 16.9726 12.3336C13.1434 10.4797 9.85033 7.74369 7.38662 4.36921C7.38662 4.36921 -2.36757 25.4799 19.5794 34.8624C14.5572 38.1413 8.57458 39.7856 2.50952 39.5536C24.4564 51.2817 51.2805 39.5536 51.2805 12.5789C51.2783 11.9255 51.2129 11.2738 51.0854 10.632C53.5742 8.27113 56.1576 2.02359 56.1576 2.02359Z" stroke="#033008" stroke-width="3.51843" stroke-linecap="round" stroke-linejoin="round"/>
    </svg>
    